PathFileType	4	(X/Y/Z)	 s10c0303.trc
DataRate	CameraRate	NumFrames	NumMarkers	Units	OrigDataRate	OrigDataStartFrame	OrigNumFrames
200	200	4	50	mm	200	1751	2000
Frame#	Time	racr			lacr			c7			jug			rlel			rdr			llel			ldr			s2			lic			ric			lasi			rasi			rpsi			lpsi			rgt			lgt			rth1			rth2			rth3			rth4			rlfc			rmfc			rsh1			rsh2			rsh3			rsh4			rlmal			rmmal			rcal			rtoe			rmt5			lth1			lth2			lth4			lth3			llfc			lmfc			llmal			lmmal			lcal			lmt5			lsh1			lsh2			lsh3			lsh4			ltoe			SBIKE			LBIKE			RBIKE			
		X1	Y1	Z1	X2	Y2	Z2	X3	Y3	Z3	X4	Y4	Z4	X5	Y5	Z5	X6	Y6	Z6	X7	Y7	Z7	X8	Y8	Z8	X9	Y9	Z9	X10	Y10	Z10	X11	Y11	Z11	X12	Y12	Z12	X13	Y13	Z13	X14	Y14	Z14	X15	Y15	Z15	X16	Y16	Z16	X17	Y17	Z17	X18	Y18	Z18	X19	Y19	Z19	X20	Y20	Z20	X21	Y21	Z21	X22	Y22	Z22	X23	Y23	Z23	X24	Y24	Z24	X25	Y25	Z25	X26	Y26	Z26	X27	Y27	Z27	X28	Y28	Z28	X29	Y29	Z29	X30	Y30	Z30	X31	Y31	Z31	X32	Y32	Z32	X33	Y33	Z33	X34	Y34	Z34	X35	Y35	Z35	X36	Y36	Z36	X37	Y37	Z37	X38	Y38	Z38	X39	Y39	Z39	X40	Y40	Z40	X41	Y41	Z41	X42	Y42	Z42	X43	Y43	Z43	X44	Y44	Z44	X45	Y45	Z45	X46	Y46	Z46	X47	Y47	Z47	X48	Y48	Z48	X49	Y49	Z49	X50	Y50	Z50	
1751	8.7550	683.599521	1303.702925	-15.867222	657.741465	1299.969981	-318.002629	660.519530	1322.927123	-162.960702	632.030464	1179.525690	-154.471948	576.229212	1059.215748	92.686191	642.758754	873.594006	-10.665345	578.752933	1067.150367	-457.042881	667.473817	880.795608	-371.334451	124.142707	1168.703258	-217.867895	307.585451	1168.155296	-337.637554	273.748739	1144.613184	-58.598083	323.614922	1079.410662	-324.984848	271.804672	1067.650692	-72.151575	165.231551	1214.339587	-150.560773	191.614337	1226.708324	-258.099820	158.926882	1059.019067	-27.552112	201.224772	1052.794906	-411.049214	246.538042	939.345394	-11.974663	328.794988	905.795974	-20.479026	379.498730	837.582905	-27.733844	350.107691	936.359422	-24.121751	474.478930	778.772548	-42.864328	469.028914	770.168121	-164.570967	394.623280	698.074031	-13.583945	366.907572	613.088062	-20.506476	302.728699	555.702607	-23.576972	393.230523	598.573432	-44.762642	242.403402	457.205057	-39.200233	269.530794	470.494141	-119.050997	184.448041	444.125180	-86.586574	419.030752	379.316140	-81.876223	333.097602	367.408679	-21.286455	249.572457	920.135010	-418.111961	299.544601	853.000831	-396.163531	328.078697	867.494394	-378.536683	310.141278	765.480224	-388.617528	335.618669	653.994801	-365.534599	311.452711	645.221626	-251.875445	34.655861	413.394814	-387.313915	42.173556	403.858975	-308.232101	-21.398152	434.586368	-341.806004	39.148681	265.668184	-395.776293	223.034646	595.555470	-409.654812	180.157210	519.094486	-396.547360	103.332316	474.130827	-397.768387	201.327890	501.107532	-370.398333	104.490658	223.389293	-339.446820	-203.998716	831.360886	-224.049353	-78.162148	82.073072	-423.673278	-102.642207	80.682352	-24.402481	
1752	8.7600	684.268816	1304.616510	-17.556214	658.589776	1300.652692	-318.962375	661.170230	1323.953064	-164.026819	632.194439	1180.672493	-156.032447	576.844212	1060.373455	90.810955	642.974372	873.750473	-10.833984	579.660320	1067.606944	-457.136107	667.590660	880.860125	-371.329805	124.625662	1170.966368	-215.054795	306.055965	1170.908317	-337.252634	275.025750	1145.768507	-57.256399	322.711331	1081.603278	-324.421511	273.106307	1068.673911	-71.671205	166.169091	1215.745007	-147.511513	191.462440	1228.797757	-255.259393	159.774215	1059.561216	-26.476117	200.233855	1055.800023	-409.440818	245.343017	937.955399	-11.604357	326.333639	901.340435	-20.650680	374.832972	831.797312	-28.319989	348.753926	931.523005	-24.373318	468.095599	769.418297	-44.298574	461.192382	761.036147	-165.322094	389.735351	686.799539	-14.041221	363.525747	601.453106	-21.425426	300.516290	542.749295	-24.134436	389.854123	587.661886	-46.111332	241.964368	444.070709	-39.312155	268.586599	458.075371	-119.464245	184.027442	429.895385	-86.543021	420.028687	370.295008	-81.704790	334.262207	356.430823	-21.171799	251.110880	922.827249	-416.471507	303.223002	857.236739	-394.133815	331.883631	873.187527	-377.591413	317.216803	770.059306	-386.558771	345.346266	658.847032	-363.443119	322.208448	649.093127	-250.112717	39.289737	423.277703	-386.722743	47.393845	412.794695	-308.082390	-15.802472	446.446180	-341.239094	37.755764	275.292314	-395.728760	232.184601	601.367993	-408.058120	187.782361	526.335932	-395.631253	109.720663	483.401325	-397.515466	208.140756	507.743305	-369.081766	101.190386	230.005376	-339.536173	-204.033262	831.314919	-224.073523	-78.151523	82.066971	-423.665864	-102.649508	80.694521	-24.392974	
1753	8.7650	684.633704	1305.663705	-19.178196	659.414211	1301.382819	-319.931706	661.626227	1324.981944	-165.221142	632.489569	1181.898958	-157.438195	577.740114	1061.650297	88.970784	643.178495	873.766113	-10.952649	580.608821	1068.050992	-457.384065	667.696714	880.882301	-371.331987	125.170762	1173.172338	-212.412039	304.633122	1173.233610	-336.598406	276.523508	1146.792308	-55.950309	321.918226	1083.494428	-323.767085	274.404656	1069.482533	-71.104777	167.030425	1217.310332	-144.514744	191.068399	1230.486360	-252.286851	160.772429	1060.077868	-25.345344	199.263573	1058.338135	-407.744508	244.323460	936.423611	-11.067604	323.926734	897.267633	-20.693537	370.008740	825.969016	-28.850809	347.288355	926.569390	-24.659828	461.365895	759.326653	-45.679595	453.216381	751.525979	-165.957320	384.269577	675.300663	-14.216612	359.787186	589.593454	-22.519862	298.046466	529.494348	-24.575734	386.052328	576.480891	-47.645107	241.233549	430.773224	-39.638555	267.402705	445.345013	-119.956215	183.407815	416.081981	-86.702494	420.473291	360.949441	-81.606414	335.041217	345.254655	-20.959841	252.726826	925.630528	-414.874388	307.294550	861.880969	-392.908807	335.488588	878.796038	-376.679837	324.470929	775.230741	-385.258616	354.527995	664.231011	-361.544402	333.633937	653.356855	-247.775333	44.332260	433.048993	-386.165870	53.391266	421.664675	-308.001245	-9.834507	457.893352	-339.939622	37.004748	284.903631	-395.648469	241.848222	607.304360	-406.836430	195.411491	533.417426	-394.505461	116.344234	492.424745	-397.075759	215.031223	514.414469	-367.666075	98.589145	236.902121	-339.698105	-203.986045	831.339643	-224.111056	-78.151974	82.077647	-423.689048	-102.628160	80.705393	-24.413604	
1754	8.7700	684.704532	1307.016245	-20.560796	660.205652	1302.184388	-320.820575	662.014043	1325.990186	-166.462074	632.916560	1183.059031	-159.015765	578.630797	1062.966100	87.002910	643.316701	873.841963	-11.139313	581.475995	1068.482133	-457.823878	667.813012	880.832791	-371.430211	125.676512	1174.779913	-209.431212	303.335276	1175.310826	-335.876497	278.227279	1147.373675	-54.618242	321.218637	1085.222362	-323.043422	275.711033	1070.053814	-70.525414	167.929953	1218.476751	-141.549532	190.458907	1231.933834	-249.271487	161.744064	1060.456963	-24.367345	198.434806	1060.663954	-405.959138	243.329420	934.606386	-10.349266	321.519759	892.860573	-20.751849	365.082574	819.958979	-29.392945	345.892204	921.244603	-25.024545	454.257009	749.362518	-47.385676	445.357569	741.471006	-166.693415	379.000410	663.319988	-14.806775	356.147917	577.603353	-23.373651	295.138247	516.106436	-25.177111	381.899035	565.123260	-49.390142	240.152815	417.925040	-39.865981	265.875570	432.924488	-120.542708	182.347473	402.273148	-87.122114	420.275248	351.472878	-81.621380	335.058993	334.069841	-20.881430	254.593216	928.556953	-413.246775	311.187279	866.525678	-391.741362	338.955289	884.338086	-375.736307	331.164719	780.407411	-383.967254	363.197195	669.839673	-359.984191	344.424110	657.911512	-245.771351	49.651629	442.838129	-385.552990	56.971757	431.928350	-304.459815	-3.721892	469.092615	-339.276589	36.799243	294.599766	-395.575616	251.370177	613.136566	-405.568216	203.175422	540.320957	-393.374227	123.163160	501.156809	-396.517961	222.105765	521.434258	-366.767884	96.511460	244.048708	-339.619135	-203.929656	831.378700	-224.098057	-78.157899	82.074039	-423.694637	-102.623387	80.703522	-24.415964	
